<svg width="54" height="55" viewBox="0 0 54 55" fill="none" xmlns="http://www.w3.org/2000/svg">
<rect y="0.5" width="54" height="54" rx="27" fill="#1083E6"/>
<path d="M27.0003 35.8337C31.6027 35.8337 35.3337 32.1027 35.3337 27.5003C35.3337 22.898 31.6027 19.167 27.0003 19.167C22.398 19.167 18.667 22.898 18.667 27.5003C18.667 32.1027 22.398 35.8337 27.0003 35.8337Z" stroke="white" stroke-linecap="round" stroke-linejoin="round"/>
<path d="M29.2687 24.3886C29.6759 24.2529 29.8794 24.1851 30.0148 24.2333C30.1326 24.2753 30.2253 24.368 30.2673 24.4859C30.3156 24.6212 30.2477 24.8248 30.112 25.2319L28.8724 28.9508C28.8338 29.0667 28.8144 29.1247 28.7815 29.1728C28.7523 29.2155 28.7155 29.2523 28.6728 29.2815C28.6247 29.3144 28.5667 29.3338 28.4508 29.3724L24.7319 30.612C24.3248 30.7477 24.1212 30.8156 23.9859 30.7673C23.868 30.7253 23.7753 30.6326 23.7333 30.5148C23.6851 30.3794 23.7529 30.1759 23.8886 29.7687L25.1283 26.0499C25.1669 25.9339 25.1862 25.876 25.2192 25.8278C25.2483 25.7852 25.2852 25.7483 25.3278 25.7192C25.376 25.6862 25.4339 25.6669 25.5499 25.6283L29.2687 24.3886Z" stroke="white" stroke-linecap="round" stroke-linejoin="round"/>
</svg>
