<svg width="48" height="48" viewBox="0 0 48 48" fill="none" xmlns="http://www.w3.org/2000/svg">
<rect x="0.5" y="0.5" width="47" height="47" rx="23.5" fill="white"/>
<rect x="0.5" y="0.5" width="47" height="47" rx="23.5" stroke="#1083E6"/>
<path d="M23 16.0002H18.8C17.1198 16.0002 16.2798 16.0002 15.638 16.3272C15.0735 16.6148 14.6146 17.0738 14.327 17.6383C14 18.28 14 19.1201 14 20.8002V29.2002C14 30.8804 14 31.7205 14.327 32.3622C14.6146 32.9267 15.0735 33.3856 15.638 33.6732C16.2798 34.0002 17.1198 34.0002 18.8 34.0002H27.2C28.8802 34.0002 29.7202 34.0002 30.362 33.6732C30.9265 33.3856 31.3854 32.9267 31.673 32.3622C32 31.7205 32 30.8804 32 29.2002V25.0002M20 28.0002H21.6745C22.1637 28.0002 22.4083 28.0002 22.6385 27.945C22.8425 27.896 23.0376 27.8152 23.2166 27.7055C23.4184 27.5818 23.5914 27.4089 23.9373 27.063L33.5 17.5002C34.3284 16.6718 34.3284 15.3287 33.5 14.5002C32.6716 13.6718 31.3284 13.6718 30.5 14.5002L20.9372 24.063C20.5913 24.4089 20.4184 24.5818 20.2947 24.7837C20.185 24.9626 20.1042 25.1577 20.0552 25.3618C20 25.5919 20 25.8365 20 26.3257L20 28.0002Z" stroke="#1083E6" stroke-linecap="round" stroke-linejoin="round"/>
</svg>
