<svg width="16" height="16" viewBox="0 0 16 16" fill="none" xmlns="http://www.w3.org/2000/svg">
<g clip-path="url(#clip0_2184_32360)">
<path d="M6.00065 1.33301V3.33301M10.0007 1.33301V3.33301M6.00065 12.6663V14.6663M10.0007 12.6663V14.6663M12.6673 5.99967H14.6673M12.6673 9.33301H14.6673M1.33398 5.99967H3.33398M1.33398 9.33301H3.33398M6.53398 12.6663L9.46732 12.6663C10.5874 12.6663 11.1475 12.6663 11.5753 12.4484C11.9516 12.2566 12.2576 11.9506 12.4493 11.5743C12.6673 11.1465 12.6673 10.5864 12.6673 9.46634L12.6673 6.53301C12.6673 5.4129 12.6673 4.85285 12.4493 4.42503C12.2576 4.0487 11.9516 3.74274 11.5753 3.55099C11.1475 3.33301 10.5874 3.33301 9.46732 3.33301L6.53398 3.33301C5.41388 3.33301 4.85383 3.33301 4.426 3.55099C4.04968 3.74274 3.74372 4.0487 3.55197 4.42503C3.33398 4.85285 3.33398 5.4129 3.33398 6.53301L3.33398 9.46634C3.33398 10.5864 3.33398 11.1465 3.55197 11.5743C3.74372 11.9506 4.04968 12.2566 4.426 12.4484C4.85383 12.6663 5.41388 12.6663 6.53398 12.6663Z" stroke="#EB5757" stroke-linecap="round" stroke-linejoin="round"/>
</g>
<defs>
<clipPath id="clip0_2184_32360">
<rect width="16" height="16" fill="white"/>
</clipPath>
</defs>
</svg>
