    <svg width="16" height="13" viewBox="0 0 16 13" fill="none" xmlns="http://www.w3.org/2000/svg">
<path d="M14.333 10.5003L9.90444 6.50033M6.09491 6.50033L1.66636 10.5003M1.33301 3.16699L6.77629 6.97729C7.21707 7.28583 7.43746 7.44011 7.67718 7.49986C7.88894 7.55265 8.11041 7.55265 8.32217 7.49986C8.56189 7.44011 8.78228 7.28583 9.22306 6.97729L14.6663 3.16699M4.53301 11.8337L11.4663 11.8337C12.5864 11.8337 13.1465 11.8337 13.5743 11.6157C13.9506 11.4239 14.2566 11.118 14.4484 10.7416C14.6663 10.3138 14.6663 9.75376 14.6663 8.63366L14.6663 4.36699C14.6663 3.24689 14.6663 2.68683 14.4484 2.25901C14.2566 1.88269 13.9506 1.57673 13.5743 1.38498C13.1465 1.16699 12.5864 1.16699 11.4663 1.16699L4.53301 1.16699C3.4129 1.16699 2.85285 1.16699 2.42503 1.38498C2.0487 1.57673 1.74274 1.88269 1.55099 2.25901C1.33301 2.68683 1.33301 3.24689 1.33301 4.36699L1.33301 8.63366C1.33301 9.75376 1.33301 10.3138 1.55099 10.7416C1.74274 11.118 2.0487 11.4239 2.42503 11.6157C2.85285 11.8337 3.4129 11.8337 4.53301 11.8337Z" stroke="#1083E6" stroke-linecap="round" stroke-linejoin="round"/>
</svg>
