<svg width="100" height="100" viewBox="0 0 100 100" fill="none" xmlns="http://www.w3.org/2000/svg">
<rect width="100" height="100" rx="50" fill="white"/>
<path d="M76.6673 48.6668V56.9335C76.6673 62.9074 76.6673 65.8943 75.5047 68.1761C74.4821 70.1831 72.8503 71.8149 70.8432 72.8376C68.5615 74.0002 65.5745 74.0002 59.6007 74.0002H40.4007C34.4268 74.0002 31.4398 74.0002 29.1581 72.8376C27.151 71.8149 25.5192 70.1831 24.4966 68.1761C23.334 65.8943 23.334 62.9074 23.334 56.9335L23.334 43.0668C23.334 37.0929 23.334 34.106 24.4966 31.8243C25.5192 29.8172 27.151 28.1854 29.1581 27.1628C31.4398 26.0002 34.4268 26.0002 40.4007 26.0002H51.334M68.6673 39.3335V23.3335M60.6673 31.3335H76.6673M60.6673 50.0002C60.6673 55.8912 55.8917 60.6668 50.0007 60.6668C44.1096 60.6668 39.334 55.8912 39.334 50.0002C39.334 44.1091 44.1096 39.3335 50.0007 39.3335C55.8917 39.3335 60.6673 44.1091 60.6673 50.0002Z" stroke="#1083E6" stroke-width="3" stroke-linecap="round" stroke-linejoin="round"/>
</svg>
