<svg width="16" height="16" viewBox="0 0 16 16" fill="none" xmlns="http://www.w3.org/2000/svg">
<path d="M8.00065 10.6667V14M8.00065 10.6667L12.0007 14M8.00065 10.6667L4.00065 14M5.33398 4.66667L5.33398 8M8.00065 6V8M10.6673 7.33333L10.6673 8M14.6673 2L1.33398 2M2.00065 2L14.0007 2V7.46667C14.0007 8.58677 14.0007 9.14682 13.7827 9.57465C13.5909 9.95097 13.285 10.2569 12.9086 10.4487C12.4808 10.6667 11.9208 10.6667 10.8007 10.6667L5.20065 10.6667C4.08055 10.6667 3.52049 10.6667 3.09267 10.4487C2.71635 10.2569 2.41038 9.95097 2.21864 9.57465C2.00065 9.14682 2.00065 8.58677 2.00065 7.46667L2.00065 2Z" stroke="#27AE60" stroke-linecap="round" stroke-linejoin="round"/>
</svg>
